<?xml version="1.0" encoding="UTF-8" standalone="no" ?>
<!DOCTYPE svg PUBLIC "-//W3C//DTD SVG 1.1//EN" "http://www.w3.org/Graphics/SVG/1.1/DTD/svg11.dtd">
<svg xmlns="http://www.w3.org/2000/svg" xmlns:xlink="http://www.w3.org/1999/xlink" version="1.1" width="1080" height="1080" viewBox="0 0 1080 1080" xml:space="preserve">
<desc>Created with Fabric.js 5.2.4</desc>
<defs>
</defs>
<g transform="matrix(1 0 0 1 540 540)" id="eb6d1732-48d4-4416-b772-937db5fd9495"  >
<rect style="stroke: none; stroke-width: 1; stroke-dasharray: none; stroke-linecap: butt; stroke-dashoffset: 0; stroke-linejoin: miter; stroke-miterlimit: 4; fill: rgb(255,255,255); fill-rule: nonzero; opacity: 1; visibility: hidden;" vector-effect="non-scaling-stroke"  x="-540" y="-540" rx="0" ry="0" width="1080" height="1080" />
</g>
<g transform="matrix(1 0 0 1 540 540)" id="8292c2b4-6cc8-4fdc-a22e-dea1734a4870"  >
</g>
<g transform="matrix(45.29 0 0 45.29 494.29 494.35)" id="204f5335-32ea-43a2-a8ad-cdb238ed1075"  >
<path style="stroke: rgb(0,0,0); stroke-width: 0; stroke-dasharray: none; stroke-linecap: butt; stroke-dashoffset: 0; stroke-linejoin: miter; stroke-miterlimit: 4; fill: rgb(109,179,62); fill-rule: nonzero; opacity: 1;" vector-effect="non-scaling-stroke"  transform=" translate(-12.03, -11.99)" d="M 20.205 16.392 C 17.735999999999997 19.681 12.463999999999999 18.570999999999998 9.082999999999998 18.73 C 9.082999999999998 18.73 8.483999999999998 18.764 7.881999999999998 18.863 C 7.881999999999998 18.863 8.109999999999998 18.766 8.400999999999998 18.665 C 10.774999999999999 17.843999999999998 11.896999999999998 17.679 13.339999999999998 16.938 C 16.049999999999997 15.549999999999999 18.747999999999998 12.524999999999999 19.296999999999997 9.383 C 18.264999999999997 12.405 15.126999999999997 15.006 12.269999999999996 16.061999999999998 C 10.314999999999996 16.784 6.777999999999996 17.485999999999997 6.776999999999996 17.485999999999997 C 6.728947617642182 17.4613991845023 6.681275345357254 17.436062871959262 6.633999999999995 17.409999999999997 C 4.228999999999996 16.239999999999995 4.158999999999995 11.029999999999998 8.527999999999995 9.350999999999997 C 10.443999999999996 8.614999999999997 12.274999999999995 9.018999999999997 14.345999999999995 8.525999999999998 C 16.553999999999995 8.000999999999998 19.111999999999995 6.345999999999998 20.150999999999996 4.181999999999998 C 21.315999999999995 7.639999999999998 22.715999999999998 13.047999999999998 20.204999999999995 16.392 z M 20.247 3.112 C 19.967679871409782 3.781747800675684 19.610201656853963 4.416145758901507 19.182 5.002000000000001 C 17.301388095638295 3.063740742888351 14.715657226509805 1.9702078470702307 12.01499999999999 1.9709999999999983 C 6.492 1.971 2 6.463 2 11.985 C 1.9986962308108416 14.769674336634688 3.1605455979700965 17.428333699737966 5.204999999999995 19.318999999999996 L 5.425 19.512999999999998 C 5.091085008920885 19.17853288546199 5.091420675934308 18.636736556179155 5.425749845135714 18.30268344873089 C 5.760079014337121 17.968630341282626 6.3018754360469265 17.96874223029362 6.63606660287704 18.302933397124033 C 6.970257769707155 18.637124563954444 6.970369658717671 19.17892098566425 6.636316551269109 19.51325015486536 C 6.3022634438205465 19.84757932406647 5.760467114537711 19.84791499107941 5.426000000000001 19.514 L 5.575 19.646 C 7.375403495086748 21.168137286042207 9.657384778759322 22.002265227310097 12.015000000000002 22 C 17.293 22 21.628 17.892 21.999000000000002 12.708 C 22.273000000000003 10.169 21.523000000000003 6.945 20.247000000000003 3.112" stroke-linecap="round" />
</g>
<g transform="matrix(NaN NaN NaN NaN 0 0)"  >
<g style=""   >
</g>
</g>
</svg>